<?xml version="1.0" encoding="UTF-8"?>
<svg id="Layer_1" data-name="Layer 1" xmlns="http://www.w3.org/2000/svg" xmlns:xlink="http://www.w3.org/1999/xlink" viewBox="0 0 400 400">
  <defs>
    <style>
      .cls-1 {
        font-size: 13px;
      }

      .cls-1, .cls-2, .cls-3, .cls-4, .cls-5, .cls-6, .cls-7, .cls-8, .cls-9, .cls-10, .cls-11, .cls-12, .cls-13, .cls-14, .cls-15, .cls-16, .cls-17, .cls-18, .cls-19, .cls-20, .cls-21 {
        isolation: isolate;
      }

      .cls-1, .cls-22, .cls-17, .cls-18, .cls-19, .cls-20, .cls-21 {
        fill: #fff;
      }

      .cls-1, .cls-7 {
        font-family: Arial-BoldMT, Arial;
        font-weight: 700;
      }

      .cls-23 {
        fill: #ffe0b2;
        stroke: #f5a623;
      }

      .cls-23, .cls-24, .cls-25 {
        stroke-width: 2.5px;
      }

      .cls-26, .cls-27 {
        stroke: #5c3317;
      }

      .cls-26, .cls-27, .cls-24, .cls-28 {
        fill: none;
      }

      .cls-26, .cls-29, .cls-30, .cls-31, .cls-28 {
        stroke-width: 2px;
      }

      .cls-2, .cls-3, .cls-4, .cls-5, .cls-32, .cls-25, .cls-33 {
        fill: #fbbf24;
      }

      .cls-2, .cls-14 {
        opacity: .8;
      }

      .cls-3, .cls-6, .cls-34, .cls-9 {
        opacity: .7;
      }

      .cls-4, .cls-21 {
        opacity: .4;
      }

      .cls-5, .cls-8, .cls-20 {
        opacity: .6;
      }

      .cls-35 {
        fill: #fff8ec;
      }

      .cls-27, .cls-36 {
        stroke-width: 3px;
      }

      .cls-27, .cls-24 {
        stroke-linecap: round;
      }

      .cls-37 {
        fill: #1e2a4a;
      }

      .cls-29 {
        fill: #f5c842;
      }

      .cls-29, .cls-32, .cls-25, .cls-28 {
        stroke: #e6a800;
      }

      .cls-36 {
        fill: #1a1a2e;
        stroke: #c97c00;
      }

      .cls-38 {
        fill: #e6a800;
      }

      .cls-6 {
        fill: #f0d9a0;
      }

      .cls-32 {
        stroke-miterlimit: 4;
        stroke-width: 2px;
      }

      .cls-24 {
        stroke: #c97800;
      }

      .cls-7 {
        font-size: 9px;
      }

      .cls-7, .cls-39, .cls-11, .cls-12, .cls-13, .cls-14, .cls-15 {
        fill: #c97c00;
      }

      .cls-40 {
        fill: #3b2005;
      }

      .cls-8, .cls-9 {
        fill: #4ecb8d;
      }

      .cls-10 {
        fill: url(#linear-gradient);
        opacity: .07;
      }

      .cls-41 {
        letter-spacing: -.04em;
      }

      .cls-30 {
        fill: #5c7cfa;
        stroke: #3d5bd9;
      }

      .cls-42 {
        fill: #0f1629;
      }

      .cls-31 {
        fill: #fff3e0;
        stroke: #fbbf24;
      }

      .cls-43 {
        fill: #5c3317;
      }

      .cls-11 {
        opacity: .5;
      }

      .cls-12, .cls-16, .cls-19 {
        opacity: .2;
      }

      .cls-13, .cls-17 {
        opacity: .3;
      }

      .cls-15 {
        opacity: .85;
      }

      .cls-28 {
        stroke-linejoin: round;
      }

      .cls-44 {
        letter-spacing: .04em;
      }

      .cls-16 {
        fill: #2a9d5c;
      }

      .cls-45 {
        fill: #b36a00;
      }

      .cls-18 {
        opacity: .25;
      }
    </style>
    <linearGradient id="linear-gradient" x1="-95.97" y1="618.76" x2="-95.97" y2="617.76" gradientTransform="translate(17859 64504.54) scale(184 -104)" gradientUnits="userSpaceOnUse">
      <stop offset="0" stop-color="#fff"/>
      <stop offset="1" stop-color="#fff" stop-opacity="0"/>
    </linearGradient>
  </defs>
  <rect class="cls-35" width="400" height="400" rx="32" ry="32"/>
  <ellipse class="cls-6" cx="200" cy="345" rx="130" ry="14"/>
  <rect class="cls-29" x="60" y="295" width="280" height="20" rx="6" ry="6"/>
  <rect class="cls-38" x="60" y="312" width="280" height="10" rx="4" ry="4"/>
  <rect class="cls-39" x="185" y="260" width="30" height="38" rx="6" ry="6"/>
  <path class="cls-45" d="M169,293h62c2.21,0,4,1.79,4,4h0c0,2.21-1.79,4-4,4h-62c-2.21,0-4-1.79-4-4h0c0-2.21,1.79-4,4-4Z"/>
  <rect class="cls-36" x="100" y="145" width="200" height="120" rx="14" ry="14"/>
  <rect class="cls-42" x="108" y="153" width="184" height="104" rx="9" ry="9"/>
  <path class="cls-15" d="M117,153h166c4.97,0,9,4.03,9,9h0c0,4.97-4.03,9-9,9H117c-4.97,0-9-4.03-9-9h0c0-4.97,4.03-9,9-9Z"/>
  <circle class="cls-20" cx="120" cy="162" r="4"/>
  <rect class="cls-21" x="130" y="158" width="60" height="8" rx="3" ry="3"/>
  <rect class="cls-37" x="108" y="171" width="36" height="86"/>
  <path class="cls-14" d="M117,178h16c1.66,0,3,1.34,3,3h0c0,1.66-1.34,3-3,3h-16c-1.66,0-3-1.34-3-3h0c0-1.66,1.34-3,3-3Z"/>
  <path class="cls-17" d="M117,190h16c1.66,0,3,1.34,3,3h0c0,1.66-1.34,3-3,3h-16c-1.66,0-3-1.34-3-3h0c0-1.66,1.34-3,3-3Z"/>
  <path class="cls-17" d="M117,202h16c1.66,0,3,1.34,3,3h0c0,1.66-1.34,3-3,3h-16c-1.66,0-3-1.34-3-3h0c0-1.66,1.34-3,3-3Z"/>
  <path class="cls-17" d="M117,214h16c1.66,0,3,1.34,3,3h0c0,1.66-1.34,3-3,3h-16c-1.66,0-3-1.34-3-3h0c0-1.66,1.34-3,3-3Z"/>
  <rect class="cls-12" x="152" y="175" width="56" height="38" rx="5" ry="5"/>
  <rect class="cls-3" x="154" y="177" width="52" height="6" rx="2" ry="2"/>
  <path class="cls-17" d="M156,187h32c1.1,0,2,.9,2,2h0c0,1.1-.9,2-2,2h-32c-1.1,0-2-.9-2-2h0c0-1.1.9-2,2-2Z"/>
  <path class="cls-18" d="M156,195h40c1.1,0,2,.9,2,2h0c0,1.1-.9,2-2,2h-40c-1.1,0-2-.9-2-2h0c0-1.1.9-2,2-2Z"/>
  <rect class="cls-16" x="216" y="175" width="68" height="38" rx="5" ry="5"/>
  <rect class="cls-9" x="218" y="177" width="44" height="6" rx="2" ry="2"/>
  <path class="cls-17" d="M220,187h52c1.1,0,2,.9,2,2h0c0,1.1-.9,2-2,2h-52c-1.1,0-2-.9-2-2h0c0-1.1.9-2,2-2Z"/>
  <path class="cls-18" d="M220,195h36c1.1,0,2,.9,2,2h0c0,1.1-.9,2-2,2h-36c-1.1,0-2-.9-2-2h0c0-1.1.9-2,2-2Z"/>
  <rect class="cls-37" x="152" y="220" width="132" height="28" rx="5" ry="5"/>
  <rect class="cls-5" x="156" y="224" width="30" height="6" rx="2" ry="2"/>
  <path class="cls-19" d="M158,234h46c1.1,0,2,.9,2,2h0c0,1.1-.9,2-2,2h-46c-1.1,0-2-.9-2-2h0c0-1.1.9-2,2-2Z"/>
  <rect class="cls-8" x="212" y="224" width="30" height="6" rx="2" ry="2"/>
  <path class="cls-19" d="M214,234h36c1.1,0,2,.9,2,2h0c0,1.1-.9,2-2,2h-36c-1.1,0-2-.9-2-2h0c0-1.1.9-2,2-2Z"/>
  <rect class="cls-10" x="108" y="153" width="184" height="104" rx="9" ry="9"/>
  <rect class="cls-25" x="248" y="215" width="70" height="80" rx="18" ry="18"/>
  <path class="cls-28" d="M270,215l13,20,13-20"/>
  <polygon class="cls-39" points="283 222 279 248 283 252 287 248 283 222"/>
  <circle class="cls-23" cx="283" cy="193" r="34"/>
  <path class="cls-43" d="M248,185c3.83-20,15.33-30,34.5-30s30.67,10,34.5,30"/>
  <path class="cls-43" d="M253,185c-2-6.67-1.33-12.33,2-17"/>
  <ellipse class="cls-22" cx="272" cy="190" rx="7" ry="8"/>
  <circle class="cls-40" cx="273" cy="191" r="4.5"/>
  <circle class="cls-22" cx="274.5" cy="189.5" r="1.5"/>
  <ellipse class="cls-22" cx="294" cy="190" rx="7" ry="8"/>
  <circle class="cls-40" cx="295" cy="191" r="4.5"/>
  <circle class="cls-22" cx="296.5" cy="189.5" r="1.5"/>
  <rect class="cls-26" x="263" y="183" width="18" height="14" rx="5" ry="5"/>
  <rect class="cls-26" x="285" y="183" width="18" height="14" rx="5" ry="5"/>
  <line class="cls-26" x1="281" y1="190" x2="285" y2="190"/>
  <line class="cls-26" x1="263" y1="190" x2="258" y2="188"/>
  <line class="cls-26" x1="303" y1="190" x2="308" y2="188"/>
  <path class="cls-24" d="M272,207c7.33,6,14.67,6,22,0"/>
  <path class="cls-32" d="M223.21,235.57l16.45-9.5c3.83-2.21,8.72-.9,10.93,2.93h0c2.21,3.83.9,8.72-2.93,10.93l-16.45,9.5c-3.83,2.21-8.72.9-10.93-2.93h0c-2.21-3.83-.9-8.72,2.93-10.93Z"/>
  <line class="cls-27" x1="210" y1="248" x2="165" y2="210"/>
  <circle class="cls-39" cx="163" cy="208" r="5"/>
  <rect class="cls-30" x="255" y="290" width="22" height="36" rx="8" ry="8"/>
  <rect class="cls-30" x="289" y="290" width="22" height="36" rx="8" ry="8"/>
  <ellipse class="cls-40" cx="266" cy="328" rx="16" ry="8"/>
  <ellipse class="cls-40" cx="300" cy="328" rx="16" ry="8"/>
  <g class="cls-34">
    <polygon class="cls-33" points="40 110 41.5 115 46.5 115 42.5 118 44 123 40 120 36 123 37.5 118 33.5 115 38.5 115 40 110"/>
    <polygon class="cls-33" points="374 66 375.1 69.85 378.95 69.85 375.65 72.05 376.75 75.9 374 73.7 371.25 75.9 372.35 72.05 369.05 69.85 372.9 69.85 374 66"/>
  </g>
  <rect class="cls-31" x="28" y="165" width="52" height="72" rx="10" ry="10"/>
  <path class="cls-2" d="M38,173h32c2.21,0,4,1.79,4,4h0c0,2.21-1.79,4-4,4h-32c-2.21,0-4-1.79-4-4h0c0-2.21,1.79-4,4-4Z"/>
  <path class="cls-11" d="M38,186h32c2.21,0,4,1.79,4,4h0c0,2.21-1.79,4-4,4h-32c-2.21,0-4-1.79-4-4h0c0-2.21,1.79-4,4-4Z"/>
  <path class="cls-4" d="M38,199h32c2.21,0,4,1.79,4,4h0c0,2.21-1.79,4-4,4h-32c-2.21,0-4-1.79-4-4h0c0-2.21,1.79-4,4-4Z"/>
  <path class="cls-13" d="M38,212h20c2.21,0,4,1.79,4,4h0c0,2.21-1.79,4-4,4h-20c-2.21,0-4-1.79-4-4h0c0-2.21,1.79-4,4-4Z"/>
  <text class="cls-7" transform="translate(36.25 248)"><tspan x="0" y="0">controls</tspan></text>
  <path class="cls-39" d="M115,358h170c8.28,0,15,6.72,15,15h0c0,8.28-6.72,15-15,15H115c-8.28,0-15-6.72-15-15h0c0-8.28,6.72-15,15-15Z"/>
  <text class="cls-1" transform="translate(135.55 378)"><tspan class="cls-41" x="0" y="0">T</tspan><tspan class="cls-44" x="7.47" y="0">eacher Dashboard</tspan></text>
</svg>